<svg id="screenshot" viewBox="258.9093603535945 131.61235842228427 1882.7568473819738 1346.6139927815575" width="1882.7568473819738" height="1346.6139927815575" version="1.1" xmlns="http://www.w3.org/2000/svg" xmlns:xlink="http://www.w3.org/1999/xlink" style="-webkit-print-color-adjust: exact;"><g id="shape-f6583620-95b8-11ec-b646-f9388721caa6"><path d="M332,415C332,415,778,141,844,377C910,613,61,460,528,837C995,1214,764,1435,1062,1222C1360,1009,1041,165,1495,729C1544.65625,790.6875,1593.1162109375,846.166259765625,1639.518928527832,896.0564804077148C2017.36962890625,1302.305419921875,2258.8125,1338,1899,1338C1495,1338,899,1686,1178,1276C1243.390625,1179.90625,1314.2744140625,1106.499267578125,1384.0724449157715,1048.6207733154297C1612.079345703125,859.551025390625,1828.5,836.1875,1804,729C1794.5,687.4375,1818.138671875,625.427734375,1840.9015045166016,566.1790657043457C1894.8134765625,425.853271484375,1943.8125,301.015625,1536,500C956,783,669,761,771,1031C873,1301,793,1468,528,1222C263,976,92,804,528,685C964,566,916,514,1131,478C1346,442,1328,-194,1062,359C796,912,535,1153,1109,1092C1620.21875,1037.671875,1847.46728515625,1085.668212890625,1891.0622482299805,950.5811004638672C1896.416015625,933.991455078125,1899,914.640625,1899,892C1899,685,1339,860,1131,816C923,772,814,920,985,685C1156,450,1343,513,1495,445C1647,377,1702,271,1753,500C1804,729,1742,845,1880,729C2018,613,2009,617,2009,531C2009,445,1986,386,1880,338C1774,290,957,716,1109,860C1261,1004,1464.144889831543,840.2415466308594,1384.0724449157715,1048.6207733154297C1304,1257,1277,1428,1131,1260C985,1092,1231,833,1001,998C771,1163,972,1358,771,1178C570,998,689,1070,595,921C501,772,623,1126,468,954C313,782,238,803.8209342956543,332,685C426,566.1790657043457,541,511,468,478C395,445,1130,657,1039,892C948,1127,1356,1489,1495,1260C1634,1031,1320.037857055664,634.1129608154297,1639.518928527832,896.0564804077148C1959,1158,2192,1078,1960,1222C1728,1366,1638,1446,1663,1222C1688,998,1773.124496459961,1041.1622009277344,1891.0622482299805,950.5811004638672C2009,860,2248,870,2083,685C1918,500,1463,368,1608,271C1608,271,1795,180,1452,180C1109,180,380,773,332,594C284,415,332,415,332,415Z" style="fill: none; stroke-width: 2; stroke: rgb(0, 0, 0); stroke-opacity: 0.6;"/></g></svg>